# xmcd
#
# Track frame offsets: 
#        150
#        21582
#        40821
#        61516
#        77919
#        100332
#        118246
#        135995
#        157899
#        176025
#        197083
#        217969
#        233917
#        253321
#        273933
#        293465
#        311312
#        327973
#
# Disc length: 4616 seconds
#
# Revision: 1
# Processed by: cddbd v1.5.2PL0 Copyright (c) Steve Scherf et al.
# Submitted via: ExactAudioCopyFreeDBPlugin 1.0
#
DISCID=f8120612
DTITLE=斉藤由貴 - プラチナムベスト
DYEAR=2017
DGENRE=Onchi
TTITLE0=卒業
TTITLE1=白い炎
TTITLE2=AXIA ～かなしいことり～
TTITLE3=初戀
TTITLE4=情熱
TTITLE5=悲しみよこんにちは
TTITLE6=青空のかけら
TTITLE7=MAY
TTITLE8=砂の城
TTITLE9=「さよなら」
TTITLE10=ORACION -祈り-
TTITLE11=夢の中へ
TTITLE12=いつか
TTITLE13=なぜ
TTITLE14=家庭内デート
TTITLE15=風の向こう
TTITLE16=KIZUNA
TTITLE17=朱い夢
EXTD=YEAR: 2012
EXTT0=
EXTT1=
EXTT2=
EXTT3=
EXTT4=
EXTT5=
EXTT6=
EXTT7=
EXTT8=
EXTT9=
EXTT10=
EXTT11=
EXTT12=
EXTT13=
EXTT14=
EXTT15=
EXTT16=
EXTT17=
PLAYORDER=
